<svg width="962" height="437" viewBox="0 0 962 437" fill="none" xmlns="http://www.w3.org/2000/svg">
<g clip-path="url(#clip0)">
<path d="M470.792 363.136C485.168 378.563 485.911 401.236 485.911 401.236C485.911 401.236 463.346 398.898 448.97 383.472C434.594 368.046 433.851 345.372 433.851 345.372C433.851 345.372 456.416 347.71 470.792 363.136Z" fill="#67C3E7"/>
<path d="M516.049 387.215C500.622 401.591 477.949 402.334 477.949 402.334C477.949 402.334 480.287 379.769 495.713 365.393C511.139 351.017 533.813 350.274 533.813 350.274C533.813 350.274 531.475 372.839 516.049 387.215Z" fill="#67C3E7"/>
<path d="M512.215 433H455.476C454.387 433 453.321 432.694 452.398 432.117C451.475 431.539 450.733 430.714 450.257 429.735L437.904 404.342C437.473 403.457 437.275 402.478 437.327 401.495C437.379 400.513 437.681 399.56 438.202 398.726C438.724 397.891 439.449 397.204 440.31 396.727C441.171 396.25 442.138 396 443.122 396H524.568C525.552 396 526.52 396.25 527.381 396.727C528.241 397.204 528.967 397.891 529.488 398.726C530.01 399.56 530.311 400.513 530.364 401.495C530.416 402.478 530.217 403.457 529.787 404.342L517.434 429.735C516.957 430.714 516.216 431.539 515.293 432.117C514.37 432.694 513.303 433 512.215 433V433Z" fill="#3F3D56"/>
<path d="M282.311 189.088C295.225 189.088 305.694 178.619 305.694 165.705C305.694 152.791 295.225 142.322 282.311 142.322C269.398 142.322 258.929 152.791 258.929 165.705C258.929 178.619 269.398 189.088 282.311 189.088Z" fill="#2F2E41"/>
<path d="M288.826 142.966C292.872 142.967 296.85 144.017 300.369 146.015C303.888 148.013 306.828 150.89 308.903 154.365C310.977 157.839 312.114 161.793 312.203 165.838C312.292 169.884 311.329 173.883 309.41 177.446C311.437 174.909 312.913 171.979 313.745 168.84C314.577 165.701 314.746 162.424 314.241 159.216C313.737 156.009 312.569 152.942 310.814 150.21C309.058 147.479 306.752 145.143 304.044 143.352C301.336 141.561 298.284 140.354 295.084 139.807C291.883 139.261 288.604 139.387 285.454 140.178C282.305 140.969 279.355 142.407 276.793 144.401C274.23 146.395 272.111 148.901 270.57 151.759C272.756 149.015 275.533 146.799 278.693 145.277C281.854 143.754 285.318 142.964 288.826 142.966V142.966Z" fill="#2F2E41"/>
<path d="M238.618 165.655C276.552 165.655 307.304 134.904 307.304 96.9692C307.304 59.0348 276.552 28.2828 238.618 28.2828C200.683 28.2828 169.931 59.0348 169.931 96.9692C169.931 134.904 200.683 165.655 238.618 165.655Z" fill="#2F2E41"/>
<path d="M184.71 54.3526C196.545 41.0423 213.089 32.8509 230.849 31.5072C248.61 30.1634 266.197 35.7726 279.901 47.1507C279.339 46.6168 278.783 46.0785 278.2 45.5597C264.585 33.4564 246.72 27.2573 228.534 28.3261C210.349 29.3948 193.333 37.6439 181.23 51.2586C169.127 64.8734 162.927 82.7385 163.996 100.924C165.065 119.109 173.314 136.125 186.929 148.228C187.512 148.747 188.112 149.236 188.708 149.731C175.803 137.455 168.172 120.646 167.427 102.85C166.681 85.0547 172.878 67.6655 184.71 54.3526V54.3526Z" fill="#2F2E41"/>
<path d="M238.036 165.073C262.468 165.073 282.274 145.267 282.274 120.835C282.274 96.4024 262.468 76.5961 238.036 76.5961C213.603 76.5961 193.797 96.4024 193.797 120.835C193.797 145.267 213.603 165.073 238.036 165.073Z" fill="#D7A5AC"/>
<path d="M206.603 134.805C206.603 134.805 212.424 188.357 203.11 194.178C193.797 199.999 256.662 208.148 256.662 208.148C256.662 208.148 247.349 149.939 270.632 134.805L206.603 134.805Z" fill="#D7A5AC"/>
<path d="M262.483 184.864C262.483 184.864 279.818 176.769 254.852 179.653C229.886 182.536 208.346 171.476 208.346 171.476C208.346 171.476 200.782 163.909 199.618 172.058C198.454 180.208 203.11 195.342 177.498 197.67C151.887 199.999 128.603 193.014 119.29 210.476C109.976 227.939 114.633 303.61 114.633 303.61C114.633 303.61 132.096 366.476 146.066 375.789C160.036 385.102 282.274 372.297 282.274 372.297L317.199 309.431V236.088C317.199 236.088 312.543 210.476 279.946 217.461C279.946 217.461 258.991 212.805 260.155 202.327C261.319 191.849 262.483 184.864 262.483 184.864Z" fill="#D0CDE1"/>
<path d="M150.686 420.278C151.405 417.143 151.887 415.369 151.887 415.369L151.515 412.819L147.679 386.774L146.067 375.788C160.034 369.967 163.528 343.19 163.528 343.19L164.055 342.875L166.439 341.449V341.442L174.996 336.309L175.17 336.206L178.626 338.506L185.648 343.19C194.854 350.059 205.392 354.932 216.588 357.497C227.784 360.063 239.393 360.264 250.671 358.088C255.921 357.189 261.053 355.706 265.974 353.668L282.909 348.021L283.436 347.847L283.956 347.925L293.889 349.428L294.069 349.46L294.891 349.582L292.591 365.483L289.257 388.592C298.065 393.256 305.896 402.019 312.745 412.819C314.261 415.209 315.73 417.695 317.152 420.278C319.002 423.618 320.769 427.094 322.452 430.653C322.658 431.077 322.857 431.508 323.056 431.938C323.705 433.332 324.347 434.739 324.971 436.153H147.602C147.833 434.733 148.065 433.377 148.289 432.073C148.301 432.029 148.31 431.984 148.315 431.938C148.399 431.501 148.476 431.077 148.546 430.653C149.33 426.413 150.088 422.873 150.686 420.278Z" fill="#2F2E41"/>
<path d="M143.737 196.506C143.737 196.506 156.543 219.79 151.887 248.894C147.23 277.998 165.857 350.177 165.857 350.177L179.827 346.685C179.827 346.685 170.513 286.148 172.842 272.178C175.17 258.207 175.17 203.491 163.528 196.506C151.887 189.521 143.737 196.506 143.737 196.506Z" fill="#2F2E41"/>
<path d="M279.127 220.702L284.02 349.595L293.334 355.416C293.334 355.416 306.722 213.969 299.737 213.969H285.524C284.655 213.969 283.796 214.145 282.997 214.488C282.199 214.831 281.479 215.332 280.88 215.962C280.282 216.592 279.818 217.337 279.516 218.152C279.215 218.967 279.083 219.835 279.127 220.702V220.702Z" fill="#2F2E41"/>
<path d="M172.26 347.267C175.474 347.267 178.081 344.661 178.081 341.446C178.081 338.231 175.474 335.625 172.26 335.625C169.045 335.625 166.439 338.231 166.439 341.446C166.439 344.661 169.045 347.267 172.26 347.267Z" fill="#67C3E7"/>
<path d="M288.677 353.088C291.892 353.088 294.498 350.482 294.498 347.267C294.498 344.052 291.892 341.446 288.677 341.446C285.462 341.446 282.856 344.052 282.856 347.267C282.856 350.482 285.462 353.088 288.677 353.088Z" fill="#67C3E7"/>
<path d="M200.2 65.536V109.775H210.445L223.483 95.805L221.737 109.775H267.024L264.23 95.805L269.818 109.775H277.035V65.536H200.2Z" fill="#2F2E41"/>
<path d="M193.215 117.924C195.144 117.924 196.707 115.058 196.707 111.521C196.707 107.985 195.144 105.118 193.215 105.118C191.286 105.118 189.722 107.985 189.722 111.521C189.722 115.058 191.286 117.924 193.215 117.924Z" fill="#D7A5AC"/>
<path d="M282.856 117.924C284.785 117.924 286.349 115.058 286.349 111.521C286.349 107.985 284.785 105.118 282.856 105.118C280.927 105.118 279.364 107.985 279.364 111.521C279.364 115.058 280.927 117.924 282.856 117.924Z" fill="#D7A5AC"/>
<path d="M306.722 346.685C306.722 346.685 253.752 336.789 250.259 354.252C246.767 371.714 309.05 364.147 309.05 364.147L306.722 346.685Z" fill="#A0616A"/>
<path d="M305.558 226.775C305.558 226.775 432.453 328.058 409.169 352.506C385.886 376.953 297.408 369.968 297.408 369.968L303.229 340.864L354.453 335.043L328.841 309.431L305.558 311.759V226.775Z" fill="#D0CDE1"/>
<path d="M118.126 395.58L134.424 408.386C134.424 408.386 146.066 444.475 163.528 433.998C180.991 423.52 147.23 386.267 147.23 386.267L127.439 379.282L118.126 395.58Z" fill="#A0616A"/>
<path d="M134.424 208.148L118.17 213.039C118.17 213.039 5.2006 296.625 0.543903 319.909C-4.1128 343.192 22.6632 355.998 22.6632 355.998L123.946 403.729L134.424 375.789L86.6928 351.341C86.6928 351.341 90.1854 344.356 76.2153 343.192C62.2452 342.028 59.9168 326.894 59.9168 326.894C59.9168 326.894 87.857 283.819 102.991 293.133C118.126 302.446 122.782 309.431 122.782 309.431L134.424 208.148Z" fill="#D0CDE1"/>
<path d="M366.261 424.267V428.167C366.263 429.237 366.065 430.299 365.677 431.296C365.504 431.74 365.296 432.17 365.053 432.581C364.288 433.866 363.201 434.93 361.9 435.669C360.6 436.408 359.129 436.796 357.633 436.795H70.7453C69.2493 436.796 67.7789 436.408 66.478 435.669C65.1772 434.93 64.0907 433.866 63.325 432.581C63.0828 432.17 62.8744 431.74 62.7018 431.296C62.3133 430.299 62.115 429.237 62.1172 428.167V424.267C62.1169 423.134 62.3399 422.012 62.7734 420.965C63.2069 419.918 63.8424 418.967 64.6437 418.166C65.4449 417.364 66.3962 416.729 67.4431 416.295C68.4901 415.862 69.6122 415.639 70.7453 415.639H87.2821V413.821C87.282 413.774 87.2913 413.727 87.3093 413.683C87.3274 413.64 87.3539 413.6 87.3873 413.566C87.4207 413.533 87.4604 413.507 87.5041 413.489C87.5478 413.47 87.5946 413.461 87.6419 413.461H96.27C96.3173 413.461 96.3641 413.47 96.4078 413.489C96.4515 413.507 96.4912 413.533 96.5246 413.566C96.558 413.6 96.5845 413.64 96.6026 413.683C96.6206 413.727 96.6299 413.774 96.6298 413.821V415.639H102.02V413.821C102.02 413.774 102.029 413.727 102.047 413.683C102.065 413.64 102.092 413.6 102.125 413.566C102.159 413.533 102.198 413.507 102.242 413.489C102.286 413.47 102.332 413.461 102.38 413.461H111.008C111.055 413.461 111.102 413.47 111.146 413.489C111.189 413.507 111.229 413.533 111.262 413.566C111.296 413.6 111.322 413.64 111.34 413.683C111.358 413.727 111.368 413.774 111.368 413.821V415.639H116.764V413.821C116.764 413.774 116.774 413.727 116.792 413.683C116.81 413.64 116.836 413.6 116.87 413.566C116.903 413.533 116.943 413.507 116.986 413.489C117.03 413.47 117.077 413.461 117.124 413.461H125.752C125.8 413.461 125.846 413.47 125.89 413.489C125.934 413.507 125.973 413.533 126.007 413.566C126.04 413.6 126.067 413.64 126.085 413.683C126.103 413.727 126.112 413.774 126.112 413.821V415.639H131.502V413.821C131.502 413.774 131.511 413.727 131.529 413.683C131.548 413.64 131.574 413.6 131.607 413.566C131.641 413.533 131.681 413.507 131.724 413.489C131.768 413.47 131.815 413.461 131.862 413.461H140.49C140.537 413.461 140.584 413.47 140.628 413.489C140.672 413.507 140.711 413.533 140.745 413.566C140.778 413.6 140.805 413.64 140.823 413.683C140.841 413.727 140.85 413.774 140.85 413.821V415.639H146.24V413.821C146.24 413.774 146.249 413.727 146.267 413.683C146.285 413.64 146.312 413.6 146.345 413.566C146.379 413.533 146.418 413.507 146.462 413.489C146.506 413.47 146.553 413.461 146.6 413.461H155.228C155.275 413.461 155.322 413.47 155.366 413.489C155.409 413.507 155.449 413.533 155.483 413.566C155.516 413.6 155.543 413.64 155.561 413.683C155.579 413.727 155.588 413.774 155.588 413.821V415.639H160.984V413.821C160.984 413.774 160.994 413.727 161.012 413.683C161.03 413.64 161.056 413.6 161.09 413.566C161.123 413.533 161.163 413.507 161.206 413.489C161.25 413.47 161.297 413.461 161.344 413.461H169.972C170.02 413.461 170.066 413.47 170.11 413.489C170.154 413.507 170.193 413.533 170.227 413.566C170.26 413.6 170.287 413.64 170.305 413.683C170.323 413.727 170.332 413.774 170.332 413.821V415.639H175.722V413.821C175.722 413.774 175.732 413.727 175.75 413.683C175.768 413.64 175.794 413.6 175.828 413.566C175.861 413.533 175.901 413.507 175.944 413.489C175.988 413.47 176.035 413.461 176.082 413.461H243.668C243.715 413.461 243.762 413.47 243.806 413.489C243.85 413.507 243.889 413.533 243.923 413.566C243.956 413.6 243.983 413.64 244.001 413.683C244.019 413.727 244.028 413.774 244.028 413.821V415.639H249.425V413.821C249.424 413.774 249.434 413.727 249.452 413.683C249.47 413.64 249.496 413.6 249.53 413.566C249.563 413.533 249.603 413.507 249.647 413.489C249.69 413.47 249.737 413.461 249.784 413.461H258.412C258.508 413.462 258.599 413.5 258.666 413.568C258.733 413.635 258.771 413.726 258.772 413.821V415.639H264.162V413.821C264.162 413.774 264.172 413.727 264.19 413.683C264.208 413.64 264.234 413.6 264.268 413.566C264.301 413.533 264.341 413.507 264.384 413.489C264.428 413.47 264.475 413.461 264.522 413.461H273.15C273.198 413.461 273.244 413.47 273.288 413.489C273.332 413.507 273.371 413.533 273.405 413.566C273.438 413.6 273.465 413.64 273.483 413.683C273.501 413.727 273.51 413.774 273.51 413.821V415.639H278.9V413.821C278.9 413.774 278.909 413.727 278.928 413.683C278.946 413.64 278.972 413.6 279.006 413.566C279.039 413.533 279.079 413.507 279.122 413.489C279.166 413.47 279.213 413.461 279.26 413.461H287.888C287.935 413.461 287.982 413.47 288.026 413.489C288.07 413.507 288.109 413.533 288.143 413.566C288.176 413.6 288.203 413.64 288.221 413.683C288.239 413.727 288.248 413.774 288.248 413.821V415.639H293.645V413.821C293.645 413.774 293.654 413.727 293.672 413.683C293.69 413.64 293.716 413.6 293.75 413.566C293.783 413.533 293.823 413.507 293.867 413.489C293.91 413.47 293.957 413.461 294.004 413.461H302.633C302.727 413.462 302.817 413.501 302.883 413.568C302.95 413.636 302.986 413.727 302.986 413.821V415.639H308.383V413.821C308.382 413.774 308.392 413.727 308.41 413.683C308.428 413.64 308.454 413.6 308.488 413.566C308.521 413.533 308.561 413.507 308.605 413.489C308.648 413.47 308.695 413.461 308.742 413.461H317.37C317.418 413.461 317.465 413.47 317.508 413.489C317.552 413.507 317.592 413.533 317.625 413.566C317.658 413.6 317.685 413.64 317.703 413.683C317.721 413.727 317.73 413.774 317.73 413.821V415.639H323.12V413.821C323.12 413.774 323.13 413.727 323.148 413.683C323.166 413.64 323.192 413.6 323.226 413.566C323.259 413.533 323.299 413.507 323.342 413.489C323.386 413.47 323.433 413.461 323.48 413.461H332.108C332.156 413.461 332.202 413.47 332.246 413.489C332.29 413.507 332.33 413.533 332.363 413.566C332.396 413.6 332.423 413.64 332.441 413.683C332.459 413.727 332.468 413.774 332.468 413.821V415.639H357.633C358.766 415.639 359.888 415.862 360.935 416.295C361.982 416.729 362.933 417.364 363.735 418.166C364.536 418.967 365.171 419.918 365.605 420.965C366.038 422.012 366.261 423.134 366.261 424.267V424.267Z" fill="#3F3D56"/>
<path d="M343.16 260.034H236.228V257.83H187.741V260.034H80.3686C78.4503 260.034 76.6105 260.796 75.254 262.153C73.8975 263.509 73.1355 265.349 73.1355 267.267V413.69C73.1355 415.608 73.8975 417.448 75.254 418.805C76.6105 420.161 78.4503 420.923 80.3686 420.923H343.16C345.078 420.923 346.918 420.161 348.275 418.805C349.631 417.448 350.393 415.608 350.393 413.69V267.267C350.393 265.349 349.631 263.509 348.275 262.153C346.918 260.796 345.078 260.034 343.16 260.034V260.034Z" fill="#3F3D56"/>
<path d="M211.975 327.215C220.845 327.215 228.036 320.024 228.036 311.154C228.036 302.284 220.845 295.093 211.975 295.093C203.104 295.093 195.913 302.284 195.913 311.154C195.913 320.024 203.104 327.215 211.975 327.215Z" stroke="#D0CDE1" stroke-width="2" stroke-miterlimit="10"/>
<path d="M206.835 332.997C215.706 332.997 222.896 325.806 222.896 316.936C222.896 308.066 215.706 300.875 206.835 300.875C197.965 300.875 190.774 308.066 190.774 316.936C190.774 325.806 197.965 332.997 206.835 332.997Z" fill="#D0CDE1"/>
<path d="M599 434H-351V436H599V434Z" fill="#3F3D56"/>
</g>
<defs>
<clipPath id="clip0">
<rect width="600" height="436.795" fill="white"/>
</clipPath>
</defs>
</svg>
